<svg width="24" height="24" viewBox="0 0 24 24" fill="none" xmlns="http://www.w3.org/2000/svg">
<path d="M10.7361 4H4.10997C3.60787 4 3.12633 4.21071 2.77129 4.58579C2.41626 4.96086 2.2168 5.46957 2.2168 6V20C2.2168 20.5304 2.41626 21.0391 2.77129 21.4142C3.12633 21.7893 3.60787 22 4.10997 22H17.3622C17.8643 22 18.3458 21.7893 18.7008 21.4142C19.0559 21.0391 19.2553 20.5304 19.2553 20V13" stroke="#EB2F96" stroke-width="2" stroke-linecap="round" stroke-linejoin="round"/>
<path d="M17.8356 2.49998C18.2122 2.10216 18.723 1.87866 19.2555 1.87866C19.7881 1.87866 20.2988 2.10216 20.6754 2.49998C21.052 2.89781 21.2635 3.43737 21.2635 3.99998C21.2635 4.56259 21.052 5.10216 20.6754 5.49998L11.6828 15L7.89648 16L8.84307 12L17.8356 2.49998Z" stroke="#EB2F96" stroke-width="2" stroke-linecap="round" stroke-linejoin="round"/>
</svg>
