<svg width="22" height="22" viewBox="0 0 22 22" fill="none" xmlns="http://www.w3.org/2000/svg">
<path d="M13.4149 3.5814C13.4149 3.03863 13.1955 2.51809 12.8049 2.13429C12.4144 1.7505 11.8847 1.53488 11.3324 1.53488C10.7801 1.53488 10.2504 1.7505 9.85983 2.13429C9.46928 2.51809 9.24988 3.03863 9.24988 3.5814H13.4149ZM7.68801 3.5814C7.68801 3.11108 7.78227 2.64537 7.96542 2.21086C8.14857 1.77634 8.41701 1.38153 8.75542 1.04897C9.09383 0.716403 9.49558 0.452599 9.93773 0.272618C10.3799 0.0926355 10.8538 0 11.3324 0C11.811 0 12.2848 0.0926355 12.727 0.272618C13.1692 0.452599 13.5709 0.716403 13.9093 1.04897C14.2477 1.38153 14.5162 1.77634 14.6993 2.21086C14.8825 2.64537 14.9767 3.11108 14.9767 3.5814H20.9639C21.171 3.5814 21.3696 3.66225 21.5161 3.80617C21.6625 3.9501 21.7448 4.1453 21.7448 4.34884C21.7448 4.55238 21.6625 4.74758 21.5161 4.8915C21.3696 5.03542 21.171 5.11628 20.9639 5.11628H19.5894L19.0667 10.4321C18.5853 10.1929 18.0763 10.0115 17.5507 9.89181L18.0213 5.11628H4.64341L5.84917 17.3616C5.90534 17.9312 6.17534 18.4598 6.60654 18.8444C7.03774 19.229 7.59924 19.442 8.18156 19.4419H10.0121C10.3102 20.0033 10.6881 20.5201 11.1345 20.9767H8.18156C7.21098 20.9768 6.27515 20.6217 5.55653 19.9806C4.83791 19.3395 4.38803 18.4583 4.2946 17.5089L3.0753 5.11628H1.70086C1.49374 5.11628 1.29511 5.03542 1.14865 4.8915C1.0022 4.74758 0.919922 4.55238 0.919922 4.34884C0.919922 4.1453 1.0022 3.9501 1.14865 3.80617C1.29511 3.66225 1.49374 3.5814 1.70086 3.5814H7.68801ZM21.7448 16.3721C21.7448 17.8647 21.1415 19.2962 20.0675 20.3516C18.9935 21.4071 17.5368 22 16.018 22C14.4991 22 13.0425 21.4071 11.9685 20.3516C10.8945 19.2962 10.2911 17.8647 10.2911 16.3721C10.2911 14.8795 10.8945 13.448 11.9685 12.3926C13.0425 11.3371 14.4991 10.7442 16.018 10.7442C17.5368 10.7442 18.9935 11.3371 20.0675 12.3926C21.1415 13.448 21.7448 14.8795 21.7448 16.3721ZM14.3041 13.9633C14.2063 13.8673 14.0737 13.8133 13.9355 13.8133C13.7972 13.8133 13.6646 13.8673 13.5669 13.9633C13.4691 14.0594 13.4142 14.1897 13.4142 14.3256C13.4142 14.4614 13.4691 14.5917 13.5669 14.6878L15.2818 16.3721L13.5669 18.0564C13.4691 18.1524 13.4142 18.2827 13.4142 18.4186C13.4142 18.5545 13.4691 18.6848 13.5669 18.7808C13.6646 18.8769 13.7972 18.9309 13.9355 18.9309C14.0737 18.9309 14.2063 18.8769 14.3041 18.7808L16.018 17.0955L17.7319 18.7808C17.7803 18.8284 17.8377 18.8661 17.901 18.8919C17.9642 18.9176 18.032 18.9309 18.1005 18.9309C18.1689 18.9309 18.2367 18.9176 18.2999 18.8919C18.3632 18.8661 18.4207 18.8284 18.4691 18.7808C18.5175 18.7333 18.5559 18.6768 18.5821 18.6146C18.6083 18.5525 18.6217 18.4859 18.6217 18.4186C18.6217 18.3513 18.6083 18.2847 18.5821 18.2226C18.5559 18.1604 18.5175 18.1039 18.4691 18.0564L16.7541 16.3721L18.4691 14.6878C18.5668 14.5917 18.6217 14.4614 18.6217 14.3256C18.6217 14.1897 18.5668 14.0594 18.4691 13.9633C18.3713 13.8673 18.2387 13.8133 18.1005 13.8133C17.9622 13.8133 17.8296 13.8673 17.7319 13.9633L16.018 15.6487L14.3041 13.9633Z" fill="#EB2F96"/>
</svg>
