<svg width="17" height="18" viewBox="0 0 17 18" fill="none" xmlns="http://www.w3.org/2000/svg">
<path fill-rule="evenodd" clip-rule="evenodd" d="M11.7615 16.9166H4.80495C2.24965 16.9166 0.289314 15.9936 0.84614 12.2789L1.4945 7.24457C1.83775 5.39102 3.02005 4.68164 4.05743 4.68164H12.5395C13.5921 4.68164 14.7058 5.44442 15.1024 7.24457L15.7508 12.2789C16.2237 15.5741 14.3168 16.9166 11.7615 16.9166Z" stroke="#5C5F62" stroke-width="1.5" stroke-linecap="round" stroke-linejoin="round"/>
<path d="M11.876 4.49877C11.876 2.51038 10.2641 0.89847 8.27572 0.89847V0.89847C7.31822 0.894413 6.39854 1.27194 5.72005 1.94757C5.04156 2.62319 4.66015 3.54127 4.66016 4.49877H4.66016" stroke="#5C5F62" stroke-width="1.5" stroke-linecap="round" stroke-linejoin="round"/>
<path d="M10.7471 8.25151H10.709" stroke="#5C5F62" stroke-width="1.5" stroke-linecap="round" stroke-linejoin="round"/>
<path d="M5.88825 8.25151H5.85011" stroke="#5C5F62" stroke-width="1.5" stroke-linecap="round" stroke-linejoin="round"/>
</svg>
