<svg width="20" height="20" viewBox="0 0 20 20" fill="none" xmlns="http://www.w3.org/2000/svg">
<path d="M7.63118 17.3093V14.7537C7.63116 14.1037 8.16109 13.5755 8.81767 13.5712H11.2227C11.8824 13.5712 12.4173 14.1006 12.4173 14.7537V14.7537V17.3173C12.4171 17.8692 12.862 18.3202 13.4194 18.3332H15.0227C16.6211 18.3332 17.9168 17.0504 17.9168 15.468V15.468V8.19803C17.9083 7.57553 17.6131 6.99096 17.1151 6.6107L11.6316 2.23759C10.6709 1.47614 9.30533 1.47614 8.34468 2.23759L2.88518 6.61863C2.38538 6.99736 2.08965 7.58289 2.0835 8.20597V15.468C2.0835 17.0504 3.37923 18.3332 4.97759 18.3332H6.58096C7.15212 18.3332 7.61514 17.8748 7.61514 17.3093V17.3093" stroke="#5C5F62" stroke-width="1.5" stroke-linecap="round" stroke-linejoin="round"/>
</svg>
